<?xml version="1.0" encoding="UTF-8"?>
<svg xmlns="http://www.w3.org/2000/svg" viewBox="0 0 600 600" width="600" height="600">
  <!-- ============================================================
       ЭМБЛЕМА СРОСС®  —  Круглый медальон (v.2.0 · СТАТИЧНАЯ)
       Без волн. Без анимации. Для печати, факсимиле, тиснения,
       PNG-иконок. Только концентрические кольца + эпицентр.
       ============================================================ -->

  <defs>
    <radialGradient id="monoGrad" cx="50%" cy="45%" r="60%">
      <stop offset="0%"   stop-color="#FFFFFF"/>
      <stop offset="100%" stop-color="#E8EBEE"/>
    </radialGradient>
    <path id="topArcMono"    d="M 130,300 A 170,170 0 0 1 470,300" fill="none"/>
    <path id="bottomArcMono" d="M 140,335 A 160,160 0 0 0 460,335" fill="none"/>
  </defs>

  <circle cx="300" cy="300" r="290" fill="#1A1A1A"/>
  <circle cx="300" cy="300" r="220" fill="url(#monoGrad)"/>
  <circle cx="300" cy="300" r="220" fill="none" stroke="#1A1A1A" stroke-width="1.2"/>
  <circle cx="300" cy="300" r="225" fill="none" stroke="#FFFFFF" stroke-width="1" opacity="0.4"/>

  <!-- Концентрические кольца (статичные, с затуханием) -->
  <g fill="none" stroke="#1A1A1A" stroke-linecap="round">
    <circle cx="300" cy="300" r="22"  stroke-width="2.5" opacity="0.95"/>
    <circle cx="300" cy="300" r="42"  stroke-width="2"   opacity="0.85"/>
    <circle cx="300" cy="300" r="64"  stroke-width="1.7" opacity="0.7"/>
    <circle cx="300" cy="300" r="88"  stroke-width="1.4" opacity="0.55"/>
    <circle cx="300" cy="300" r="114" stroke-width="1.1" opacity="0.4"/>
    <circle cx="300" cy="300" r="140" stroke-width="0.8" opacity="0.25"/>
    <circle cx="300" cy="300" r="170" stroke-width="0.5" opacity="0.12"/>
  </g>

  <!-- Эпицентр -->
  <circle cx="300" cy="300" r="6" fill="#1A1A1A"/>
  <circle cx="300" cy="300" r="3" fill="#FFFFFF"/>

  <text font-family="'PT Sans','Helvetica Neue',Arial,sans-serif"
        font-size="38" font-weight="700" letter-spacing="6"
        fill="#FFFFFF" text-anchor="middle">
    <textPath href="#topArcMono" startOffset="50%">СРОСС®</textPath>
  </text>

  <text font-family="'PT Sans','Helvetica Neue',Arial,sans-serif"
        font-size="20" font-weight="600" letter-spacing="3"
        fill="#FFFFFF" text-anchor="middle">
    <textPath href="#bottomArcMono" startOffset="50%">СЕЙСМОБЕЗОПАСНОСТЬ РОССИИ</textPath>
  </text>

  <g fill="#FFFFFF">
    <circle cx="300" cy="80"  r="3.5"/>
    <circle cx="300" cy="520" r="3.5"/>
    <circle cx="80"  cy="300" r="3.5"/>
    <circle cx="520" cy="300" r="3.5"/>
  </g>

  <circle cx="300" cy="300" r="288" fill="none" stroke="#FFFFFF" stroke-width="2" opacity="0.3"/>
  <circle cx="300" cy="300" r="293" fill="none" stroke="#1A1A1A" stroke-width="0.8"/>
</svg>
